<svg xmlns="http://www.w3.org/2000/svg" xmlns:xlink="http://www.w3.org/1999/xlink" version="1.1" width="256" height="256" viewBox="0 0 256 256" xml:space="preserve">
<g style="stroke: none; stroke-width: 0; stroke-dasharray: none; stroke-linecap: butt; stroke-linejoin: miter; stroke-miterlimit: 10; fill: none; fill-rule: nonzero; opacity: 1;" transform="translate(1.4065934065934016 1.4065934065934016) scale(2.81 2.81)">
	<circle cx="45" cy="45" r="44" style="stroke: none; stroke-width: 1; stroke-dasharray: none; stroke-linecap: butt; stroke-linejoin: miter; stroke-miterlimit: 10; fill: rgb(32,21,22); fill-rule: nonzero; opacity: 1;" transform="  matrix(1 0 0 1 0 0) "/>
	<path d="M 39.615 61.67 c -1.024 0 -2.047 -0.391 -2.829 -1.172 L 24.33 48.043 c -1.531 -1.531 -1.757 -4.051 -0.307 -5.66 c 1.546 -1.716 4.192 -1.768 5.805 -0.156 l 8.653 8.652 c 0.626 0.626 1.641 0.626 2.267 0 l 19.423 -19.423 c 1.754 -1.755 4.737 -1.538 6.187 0.651 c 1.054 1.592 0.742 3.733 -0.608 5.083 L 42.443 60.498 C 41.662 61.279 40.639 61.67 39.615 61.67 z" style="stroke: none; stroke-width: 1; stroke-dasharray: none; stroke-linecap: butt; stroke-linejoin: miter; stroke-miterlimit: 10; fill: rgb(106,156,137); fill-rule: nonzero; opacity: 1;" transform=" matrix(1 0 0 1 0 0) " stroke-linecap="round"/>
	<path d="M 39.615 62.67 c -1.335 0 -2.591 -0.521 -3.535 -1.465 L 23.624 48.75 c -1.972 -1.971 -2.122 -5.062 -0.343 -7.036 c 0.93 -1.032 2.204 -1.62 3.588 -1.656 c 1.393 -0.041 2.687 0.483 3.667 1.462 l 8.653 8.653 c 0.235 0.234 0.617 0.234 0.853 0 L 59.465 30.75 c 1.064 -1.065 2.537 -1.59 4.037 -1.439 c 1.5 0.151 2.846 0.969 3.691 2.245 c 1.294 1.955 0.984 4.622 -0.735 6.343 L 43.15 61.205 C 42.206 62.149 40.95 62.67 39.615 62.67 z M 27.002 42.056 c -0.027 0 -0.054 0 -0.081 0.001 c -0.831 0.022 -1.596 0.375 -2.155 0.996 c -1.049 1.164 -0.927 3.085 0.271 4.283 l 12.456 12.455 c 1.133 1.133 3.108 1.132 4.243 0 l 23.308 -23.307 c 1.05 -1.051 1.253 -2.659 0.481 -3.825 c -0.52 -0.785 -1.31 -1.267 -2.223 -1.359 c -0.91 -0.091 -1.785 0.225 -2.424 0.863 L 41.456 51.587 c -1.015 1.016 -2.667 1.016 -3.681 0 l -8.653 -8.653 C 28.553 42.366 27.803 42.056 27.002 42.056 z" style="stroke: none; stroke-width: 1; stroke-dasharray: none; stroke-linecap: butt; stroke-linejoin: miter; stroke-miterlimit: 10; fill: rgb(106,156,137); fill-rule: nonzero; opacity: 1;" transform=" matrix(1 0 0 1 0 0) " stroke-linecap="round"/>
	<path d="M 45 1 C 20.699 1 1 20.699 1 45 s 19.699 44 44 44 s 44 -19.699 44 -44 S 69.301 1 45 1 z M 75.154 64.099 c -1.225 1.931 -2.631 3.735 -4.193 5.391 c -1.562 1.655 -3.281 3.162 -5.133 4.495 C 59.966 78.204 52.773 80.689 45 80.689 C 25.29 80.689 9.311 64.71 9.311 45 C 9.311 25.29 25.29 9.311 45 9.311 c 18.287 0 33.362 13.754 35.444 31.482 c 0.078 0.661 0.137 1.328 0.178 2 c 0.045 0.73 0.067 1.466 0.067 2.207 C 80.689 52.025 78.659 58.576 75.154 64.099 z" style="stroke: none; stroke-width: 1; stroke-dasharray: none; stroke-linecap: butt; stroke-linejoin: miter; stroke-miterlimit: 10; fill: rgb(106,156,137); fill-rule: nonzero; opacity: 1;" transform=" matrix(1 0 0 1 0 0) " stroke-linecap="round"/>
	<path d="M 45 81.688 C 24.77 81.688 8.311 65.23 8.311 45 S 24.77 8.311 45 8.311 c 18.605 0 34.27 13.914 36.437 32.365 c 0.08 0.679 0.142 1.365 0.184 2.056 c 0.045 0.753 0.068 1.516 0.068 2.268 c 0 6.98 -1.968 13.771 -5.69 19.635 c -1.25 1.969 -2.699 3.834 -4.31 5.541 c -1.606 1.702 -3.382 3.256 -5.277 4.62 C 60.148 79.305 52.744 81.688 45 81.688 z M 45 10.311 c -19.127 0 -34.689 15.562 -34.689 34.689 c 0 19.127 15.562 34.688 34.689 34.688 c 7.322 0 14.322 -2.253 20.243 -6.516 c 1.793 -1.29 3.472 -2.76 4.99 -4.369 c 1.522 -1.615 2.895 -3.378 4.075 -5.24 c 3.52 -5.544 5.38 -11.963 5.38 -18.563 c 0 -0.721 -0.021 -1.437 -0.064 -2.147 c -0.04 -0.652 -0.098 -1.3 -0.174 -1.943 C 77.401 23.465 62.591 10.311 45 10.311 z" style="stroke: none; stroke-width: 1; stroke-dasharray: none; stroke-linecap: butt; stroke-linejoin: miter; stroke-miterlimit: 10; fill: rgb(106,156,137); fill-rule: nonzero; opacity: 1;" transform=" matrix(1 0 0 1 0 0) " stroke-linecap="round"/>
	<path d="M 45 90 C 20.187 90 0 69.813 0 45 C 0 20.187 20.187 0 45 0 c 24.813 0 45 20.187 45 45 C 90 69.813 69.813 90 45 90 z M 45 2 C 21.29 2 2 21.29 2 45 c 0 23.71 19.29 43 43 43 c 23.71 0 43 -19.29 43 -43 C 88 21.29 68.71 2 45 2 z" style="stroke: none; stroke-width: 1; stroke-dasharray: none; stroke-linecap: butt; stroke-linejoin: miter; stroke-miterlimit: 10; fill: rgb(106,156,137); fill-rule: nonzero; opacity: 1;" transform=" matrix(1 0 0 1 0 0) " stroke-linecap="round"/>
</g>
</svg>