<svg xmlns="http://www.w3.org/2000/svg" xmlns:xlink="http://www.w3.org/1999/xlink" version="1.1" width="256" height="256" viewBox="0 0 256 256" xml:space="preserve">
<g style="stroke: none; stroke-width: 0; stroke-dasharray: none; stroke-linecap: butt; stroke-linejoin: miter; stroke-miterlimit: 10; fill: none; fill-rule: nonzero; opacity: 1;" transform="translate(1.4065934065934016 1.4065934065934016) scale(2.81 2.81)">
	<path d="M 45 61.883 c -4.51 0 -8.749 -1.756 -11.938 -4.945 c -6.583 -6.583 -6.583 -17.294 0 -23.877 c 6.583 -6.583 17.294 -6.583 23.877 0 l 0 0 c 3.189 3.189 4.945 7.428 4.945 11.938 c 0 4.509 -1.756 8.749 -4.945 11.938 S 49.51 61.883 45 61.883 z" style="stroke: none; stroke-width: 1; stroke-dasharray: none; stroke-linecap: butt; stroke-linejoin: miter; stroke-miterlimit: 10; fill: rgb(106,156,137); fill-rule: nonzero; opacity: 1;" transform=" matrix(1 0 0 1 0 0) " stroke-linecap="round"/>
	<path d="M 23.114 66.887 c -12.069 -12.069 -12.069 -31.705 0 -43.773 l 3.979 3.979 c -9.874 9.875 -9.874 25.941 0 35.815 L 23.114 66.887 z" style="stroke: none; stroke-width: 1; stroke-dasharray: none; stroke-linecap: butt; stroke-linejoin: miter; stroke-miterlimit: 10; fill: rgb(106,156,137); fill-rule: nonzero; opacity: 1;" transform=" matrix(1 0 0 1 0 0) " stroke-linecap="round"/>
	<path d="M 66.887 66.887 l -3.979 -3.979 c 9.873 -9.875 9.873 -25.941 0 -35.815 l 3.979 -3.979 C 78.955 35.182 78.955 54.819 66.887 66.887 z" style="stroke: none; stroke-width: 1; stroke-dasharray: none; stroke-linecap: butt; stroke-linejoin: miter; stroke-miterlimit: 10; fill: rgb(106,156,137); fill-rule: nonzero; opacity: 1;" transform=" matrix(1 0 0 1 0 0) " stroke-linecap="round"/>
	<path d="M 13.165 76.835 c -17.554 -17.554 -17.554 -46.116 0 -63.67 l 3.979 3.979 c -15.359 15.36 -15.359 40.352 0 55.712 L 13.165 76.835 z" style="stroke: none; stroke-width: 1; stroke-dasharray: none; stroke-linecap: butt; stroke-linejoin: miter; stroke-miterlimit: 10; fill: rgb(106,156,137); fill-rule: nonzero; opacity: 1;" transform=" matrix(1 0 0 1 0 0) " stroke-linecap="round"/>
	<path d="M 76.835 76.835 l -3.979 -3.979 c 15.359 -15.359 15.359 -40.352 0 -55.712 l 3.979 -3.979 C 94.388 30.719 94.388 59.281 76.835 76.835 z" style="stroke: none; stroke-width: 1; stroke-dasharray: none; stroke-linecap: butt; stroke-linejoin: miter; stroke-miterlimit: 10; fill: rgb(106,156,137); fill-rule: nonzero; opacity: 1;" transform=" matrix(1 0 0 1 0 0) " stroke-linecap="round"/>
</g>
</svg>