<svg xmlns="http://www.w3.org/2000/svg" xmlns:xlink="http://www.w3.org/1999/xlink" version="1.1" width="256" height="256" viewBox="0 0 256 256" xml:space="preserve">
<g style="stroke: none; stroke-width: 0; stroke-dasharray: none; stroke-linecap: butt; stroke-linejoin: miter; stroke-miterlimit: 10; fill: none; fill-rule: nonzero; opacity: 1;" transform="translate(1.4065934065934016 1.4065934065934016) scale(2.81 2.81)">
	<path d="M 41.058 38.395 c 0.875 0 1.584 -0.709 1.584 -1.584 v -6.773 c 0 -0.875 -0.709 -1.584 -1.584 -1.584 h -6.773 c -0.875 0 -1.584 0.709 -1.584 1.584 v 6.773 c 0 0.875 0.709 1.584 1.584 1.584 H 41.058 z" style="stroke: none; stroke-width: 1; stroke-dasharray: none; stroke-linecap: butt; stroke-linejoin: miter; stroke-miterlimit: 10; fill: rgb(242,227,148); fill-rule: nonzero; opacity: 1;" transform=" matrix(1 0 0 1 0 0) " stroke-linecap="round"/>
	<path d="M 27.804 46.367 c -0.875 0 -1.584 0.709 -1.584 1.584 v 4.598 c 0 0.875 0.709 1.584 1.584 1.584 h 4.598 c 0.875 0 1.584 -0.709 1.584 -1.584 v -4.598 c 0 -0.875 -0.709 -1.584 -1.584 -1.584 H 27.804 z" style="stroke: none; stroke-width: 1; stroke-dasharray: none; stroke-linecap: butt; stroke-linejoin: miter; stroke-miterlimit: 10; fill: rgb(242,227,148); fill-rule: nonzero; opacity: 1;" transform=" matrix(1 0 0 1 0 0) " stroke-linecap="round"/>
	<path d="M 42.683 50.264 c 0 0.875 0.709 1.584 1.584 1.584 h 6.773 c 0.875 0 1.584 -0.709 1.584 -1.584 v -6.773 c 0 -0.875 -0.709 -1.584 -1.584 -1.584 h -6.773 c -0.875 0 -1.584 0.709 -1.584 1.584 V 50.264 z" style="stroke: none; stroke-width: 1; stroke-dasharray: none; stroke-linecap: butt; stroke-linejoin: miter; stroke-miterlimit: 10; fill: rgb(242,227,148); fill-rule: nonzero; opacity: 1;" transform=" matrix(1 0 0 1 0 0) " stroke-linecap="round"/>
	<path d="M 49.6 30.17 h 11.205 c 0.875 0 1.584 -0.709 1.584 -1.584 V 17.381 c 0 -0.875 -0.709 -1.584 -1.584 -1.584 H 49.6 c -0.875 0 -1.584 0.709 -1.584 1.584 v 11.205 C 48.016 29.461 48.725 30.17 49.6 30.17 z" style="stroke: none; stroke-width: 1; stroke-dasharray: none; stroke-linecap: butt; stroke-linejoin: miter; stroke-miterlimit: 10; fill: rgb(242,227,148); fill-rule: nonzero; opacity: 1;" transform=" matrix(1 0 0 1 0 0) " stroke-linecap="round"/>
	<path d="M 57.626 36.101 v 11.205 c 0 0.875 0.709 1.584 1.584 1.584 h 11.205 c 0.875 0 1.584 -0.709 1.584 -1.584 V 36.101 c 0 -0.875 -0.709 -1.584 -1.584 -1.584 H 59.21 C 58.336 34.517 57.626 35.226 57.626 36.101 z" style="stroke: none; stroke-width: 1; stroke-dasharray: none; stroke-linecap: butt; stroke-linejoin: miter; stroke-miterlimit: 10; fill: rgb(242,227,148); fill-rule: nonzero; opacity: 1;" transform=" matrix(1 0 0 1 0 0) " stroke-linecap="round"/>
	<path d="M 88.416 8.552 H 70.847 c -0.875 0 -1.584 0.709 -1.584 1.584 v 17.569 c 0 0.875 0.709 1.584 1.584 1.584 h 17.569 c 0.875 0 1.584 -0.709 1.584 -1.584 V 10.135 C 90 9.261 89.291 8.552 88.416 8.552 z" style="stroke: none; stroke-width: 1; stroke-dasharray: none; stroke-linecap: butt; stroke-linejoin: miter; stroke-miterlimit: 10; fill: rgb(242,227,148); fill-rule: nonzero; opacity: 1;" transform=" matrix(1 0 0 1 0 0) " stroke-linecap="round"/>
	<path d="M 67.721 61.107 v -7.949 h -4.847 v 6.307 c 0 0.58 -0.47 1.05 -1.05 1.05 H 5.896 c -0.58 0 -1.05 -0.47 -1.05 -1.05 V 23.728 c 0 -0.514 0.416 -0.93 0.93 -0.93 h 37.035 v -4.847 H 5.776 C 2.586 17.951 0 20.537 0 23.727 v 37.38 c 0 2.337 1.895 4.232 4.232 4.232 h 59.258 C 65.826 65.338 67.721 63.444 67.721 61.107 z" style="stroke: none; stroke-width: 1; stroke-dasharray: none; stroke-linecap: butt; stroke-linejoin: miter; stroke-miterlimit: 10; fill: rgb(242,227,148); fill-rule: nonzero; opacity: 1;" transform=" matrix(1 0 0 1 0 0) " stroke-linecap="round"/>
	<path d="M 42.238 76.361 l -1.895 -6.105 H 28.424 l -1.895 6.105 h -6.602 c -1.436 0 -2.601 1.164 -2.601 2.601 v 2.486 h 33.07 v -2.486 c 0 -1.436 -1.164 -2.601 -2.601 -2.601 H 42.238 z" style="stroke: none; stroke-width: 1; stroke-dasharray: none; stroke-linecap: butt; stroke-linejoin: miter; stroke-miterlimit: 10; fill: rgb(242,227,148); fill-rule: nonzero; opacity: 1;" transform=" matrix(1 0 0 1 0 0) " stroke-linecap="round"/>
</g>
</svg>