<?xml version="1.0" encoding="UTF-8"?>
<!DOCTYPE svg PUBLIC "-//W3C//DTD SVG 1.1//EN" "http://www.w3.org/Graphics/SVG/1.1/DTD/svg11.dtd">
<!-- Creator: CorelDRAW -->
<svg xmlns="http://www.w3.org/2000/svg" xml:space="preserve" width="2048px" height="2048px" style="shape-rendering:geometricPrecision; text-rendering:geometricPrecision; image-rendering:optimizeQuality; fill-rule:evenodd; clip-rule:evenodd"
viewBox="0 0 2048 2048"
 xmlns:xlink="http://www.w3.org/1999/xlink">
 <defs>
  <style type="text/css">
   <![CDATA[
    .fil1 {fill:none}
    .fil0 {fill:#424242;fill-rule:nonzero}
   ]]>
  </style>
 </defs>
 <g id="Layer_x0020_1">
  <metadata id="CorelCorpID_0Corel-Layer"/>
  <g id="_291360024">
   <path id="_291359832" class="fil0" d="M1616.29 1616.08c23.8984,0 45.5386,9.68977 61.2024,25.3524 15.6638,15.6638 25.3524,37.3028 25.3524,61.2024 0,23.8996 -9.68977,45.5386 -25.3524,61.2012 -15.6638,15.6626 -37.304,25.3524 -61.2024,25.3524 -23.8984,0 -45.5386,-9.68977 -61.2024,-25.3524 -15.6626,-15.6626 -25.3524,-37.3016 -25.3524,-61.2012 0,-23.8996 9.68859,-45.5386 25.3524,-61.2024 15.6638,-15.6638 37.3028,-25.3524 61.2024,-25.3524zm38.0055 48.5492c-9.72402,-9.7252 -23.1626,-15.7406 -38.0055,-15.7406 -14.8441,0 -28.2827,6.01654 -38.0055,15.7406 -9.72402,9.72284 -15.7406,23.1614 -15.7406,38.0055 0,14.8429 6.01654,28.2815 15.7406,38.0044 9.72402,9.7252 23.1626,15.7406 38.0055,15.7406 14.8429,0 28.2815,-6.01536 38.0055,-15.7406 9.72402,-9.72284 15.7406,-23.1614 15.7406,-38.0044 0,-14.8441 -6.01654,-28.2827 -15.7406,-38.0055z"/>
   <path id="_291360408" class="fil0" d="M499.68 1021.8c-77.2028,37.415 -130.28,93.3509 -163.23,168.317 -17.5713,31.0347 -68.0233,304.994 -80.452,361.972l917.474 0 13.0039 -45.6319c3.43229,-12.0425 8.4815,-23.5335 16.1126,-33.5327 5.15433,-6.75355 11.2323,-12.541 18.1949,-17.1165 18.7583,-35.041 41.9256,-71.8312 78.8906,-88.8603 1.37244,-0.633071 2.75906,-1.23307 4.15512,-1.80827 -28.3181,-141.158 -72.8741,-277.559 -208.598,-343.338 -33.7654,-16.363 -71.9705,-29.0209 -114.96,-38.0244 -77.0989,73.1658 -288.532,73.1658 -365.631,0 -42.9898,9.00355 -81.1961,21.6614 -114.96,38.0244z"/>
   <path id="_291360264" class="fil0" d="M785.779 258.808c94.689,0 180.423,38.9197 242.482,101.837 62.0575,62.9186 100.441,149.843 100.441,245.851 0,96.0083 -38.3835,182.93 -100.441,245.85 -62.0575,62.9162 -147.79,101.836 -242.482,101.836 -94.695,0 -180.429,-38.9197 -242.486,-101.836 -62.0575,-62.9197 -100.442,-149.842 -100.442,-245.85 0,-96.0083 38.3847,-182.933 100.442,-245.851 62.0575,-62.9174 147.791,-101.837 242.486,-101.837zm263.002 432.111c-50.9658,-17.0126 -97.2851,-44.5122 -136.416,-80.1792 -27.1429,-24.7406 -50.8063,-53.426 -70.1398,-85.278 -21.9295,31.9453 -142.407,134.423 -155.01,110.636 -0.133465,-0.180709 9.54922,-67.0855 8.86536,-80.1367 -11.9894,16.7646 -25.265,32.5134 -39.691,47.1071 -37.167,37.5922 -82.0052,67.4646 -132.108,87.1701 -0.612993,0.238583 -1.22717,0.459449 -1.8437,0.66378 13.5059,43.3618 37.1445,82.1646 68.0965,113.547 49.9642,50.6563 118.994,81.991 195.245,81.991 76.2461,0 145.276,-31.3347 195.239,-81.991 30.9248,-31.3559 54.5493,-70.1162 68.0611,-113.433 -0.0980316,-0.034252 -0.199606,-0.0649607 -0.297638,-0.0968505z"/>
   <path id="_291359712" class="fil0" d="M1213.52 1707.56l-0.82441 -0.227953c-9.07087,-2.58425 -17.6788,-7.63347 -24.0827,-14.2465 -9.89765,-10.2213 -14.3658,-24.0071 -10.4917,-37.5981l39.9071 -140.041c2.30433,-8.08111 5.58898,-15.9992 10.6394,-22.6193 4.33465,-5.67638 9.72284,-10.2036 16.4953,-12.9354 46.9748,-89.8796 69.5859,-91.1162 143.976,-95.1296 19.5071,-1.05236 43.0607,-2.32441 73.1729,-6.04961 1.71142,-0.211417 3.71575,-0.392126 5.99646,-0.538583 31.5012,-2.02205 60.1713,10.7847 81.8375,31.8402 19.8591,19.3004 33.8386,45.6674 38.5406,73.7741 11.4898,1.6252 22.3937,1.76929 32.9988,1.90748 27.7855,0.36378 53.8276,0.7063 85.8709,21.7299 52.5119,34.4528 84.443,92.7414 84.443,155.625 0,25.474 -20.8606,46.3241 -46.3217,46.3241l-26.6504 0c0.145276,-2.23583 0.220866,-4.48229 0.220866,-6.73819 0,-27.3851 -10.7965,-53.4414 -30.1583,-72.8008 -19.3595,-19.3595 -45.417,-30.1571 -72.7997,-30.1571 -27.3851,0 -53.4402,10.7965 -72.7997,30.1583 -19.3618,19.3595 -30.1583,45.4146 -30.1583,72.7997 0,2.25591 0.0755906,4.50237 0.220866,6.73819l-94.4564 0c0.145276,-2.23583 0.220866,-4.48229 0.220866,-6.73819 0,-27.3851 -10.7965,-53.4414 -30.1583,-72.8008 -19.3595,-19.3595 -45.417,-30.1571 -72.8008,-30.1571 -27.3839,0 -53.439,10.7965 -72.7985,30.1583 -19.3618,19.3595 -30.1583,45.4146 -30.1583,72.7997 0,1.64646 0.0401575,3.28701 0.11811,4.92402zm345.539 -206.382c-2.81457,-22.7528 -15.841,-52.2756 -31.7233,-67.7115 -15.3437,-14.9102 -35.3386,-24.0012 -56.9752,-22.6122 -1.05591,0.068504 -2.41418,0.205512 -4.07599,0.409843 -30.1689,3.73229 -54.952,5.07048 -75.4796,6.17835 -61.1611,3.3 -79.0028,4.27559 -119.192,82.4103l287.446 1.3252z"/>
   <path id="_291359952" class="fil0" d="M1316.36 1616.08c23.8996,0 45.5398,9.68977 61.2024,25.3524 15.6638,15.6638 25.3524,37.3028 25.3524,61.2024 0,23.8996 -9.68977,45.5386 -25.3524,61.2012 -15.6626,15.6626 -37.3028,25.3524 -61.2024,25.3524 -23.8996,0 -45.5386,-9.68977 -61.2024,-25.3524 -15.6626,-15.6626 -25.3524,-37.3016 -25.3524,-61.2012 0,-23.8996 9.68859,-45.5386 25.3524,-61.2024 15.6638,-15.6626 37.3028,-25.3524 61.2024,-25.3524zm38.0055 48.5492c-9.72284,-9.72402 -23.1614,-15.7406 -38.0055,-15.7406 -14.8429,0 -28.2815,6.01536 -38.0055,15.7406 -9.72402,9.72284 -15.7406,23.1614 -15.7406,38.0055 0,14.8429 6.01654,28.2815 15.7406,38.0044 9.72402,9.7252 23.1626,15.7406 38.0055,15.7406 14.8441,0 28.2827,-6.01654 38.0055,-15.7406 9.72402,-9.72284 15.7406,-23.1614 15.7406,-38.0044 0,-14.8441 -6.01654,-28.2827 -15.7406,-38.0055z"/>
   <path id="_291360096" class="fil0" d="M1316.36 1668.27c18.9473,0 34.3677,15.4311 34.3677,34.3677 0,18.9461 -15.437,34.3677 -34.3677,34.3677 -18.9425,0 -34.3677,-15.4288 -34.3677,-34.3677 0,-18.9473 15.4382,-34.3677 34.3677,-34.3677z"/>
   <path id="_291360240" class="fil0" d="M1616.29 1668.27c18.9461,0 34.3677,15.4311 34.3677,34.3677 0,18.9461 -15.4382,34.3677 -34.3677,34.3677 -18.9437,0 -34.3689,-15.4288 -34.3689,-34.3677 0,-18.9473 15.4382,-34.3677 34.3689,-34.3677z"/>
  </g>
 </g>
 <rect class="fil1" width="2048" height="2048"/>
</svg>
