<svg xmlns="http://www.w3.org/2000/svg" xmlns:xlink="http://www.w3.org/1999/xlink" version="1.1" width="256" height="256" viewBox="0 0 256 256" xml:space="preserve">
<g style="stroke: none; stroke-width: 0; stroke-dasharray: none; stroke-linecap: butt; stroke-linejoin: miter; stroke-miterlimit: 10; fill: none; fill-rule: nonzero; opacity: 1;" transform="translate(1.4065934065934016 1.4065934065934016) scale(2.81 2.81)">
	<path d="M 70.903 67.272 c -0.24 -0.498 -0.842 -0.701 -1.336 -0.465 c -0.497 0.241 -0.705 0.84 -0.465 1.336 l 3.715 7.667 L 58.75 67.437 c -0.255 -0.15 -0.563 -0.183 -0.843 -0.084 c -0.28 0.098 -0.502 0.315 -0.605 0.593 L 51.961 82.21 L 41.913 66.688 c -0.167 -0.258 -0.441 -0.424 -0.747 -0.453 c -0.303 -0.03 -0.606 0.085 -0.817 0.307 L 26.863 80.715 l -0.299 -13.777 c -0.007 -0.313 -0.161 -0.606 -0.415 -0.79 c -0.255 -0.184 -0.582 -0.237 -0.88 -0.144 l -14.853 4.584 l 2.545 -4.117 c 0.291 -0.47 0.145 -1.086 -0.325 -1.376 c -0.471 -0.291 -1.086 -0.146 -1.376 0.325 l -3.947 6.385 c -0.219 0.354 -0.195 0.808 0.06 1.137 c 0.255 0.331 0.689 0.469 1.086 0.344 l 16.134 -4.979 l 0.323 14.877 c 0.009 0.405 0.261 0.765 0.639 0.911 c 0.377 0.145 0.807 0.05 1.086 -0.243 L 40.924 68.84 l 10.437 16.124 c 0.186 0.287 0.503 0.457 0.84 0.457 c 0.035 0 0.071 -0.002 0.108 -0.006 c 0.375 -0.041 0.695 -0.29 0.828 -0.644 l 5.617 -15.004 l 15.904 9.467 c 0.38 0.226 0.863 0.176 1.188 -0.123 c 0.326 -0.298 0.417 -0.774 0.225 -1.172 L 70.903 67.272 z" style="stroke: none; stroke-width: 1; stroke-dasharray: none; stroke-linecap: butt; stroke-linejoin: miter; stroke-miterlimit: 10; fill: rgb(0,0,0); fill-rule: nonzero; opacity: 1;" transform=" matrix(1 0 0 1 0 0) " stroke-linecap="round"/>
	<path d="M 17.024 26.292 c 0.191 0.519 0.768 0.784 1.284 0.593 c 0.518 -0.19 0.784 -0.765 0.593 -1.284 l -4.552 -12.38 l 19.099 11.68 c 0.276 0.17 0.618 0.194 0.915 0.066 c 0.297 -0.127 0.515 -0.39 0.584 -0.707 l 3.549 -16.293 L 49.85 23.549 c 0.171 0.234 0.434 0.382 0.722 0.407 c 0.285 0.022 0.572 -0.075 0.781 -0.276 L 66.021 9.539 l -0.616 15.363 c -0.012 0.278 0.094 0.548 0.291 0.746 c 0.195 0.197 0.464 0.297 0.744 0.293 l 14.839 -0.541 l -3.437 5.036 c -0.312 0.456 -0.193 1.078 0.263 1.39 C 78.277 31.944 78.474 32 78.668 32 c 0.319 0 0.634 -0.153 0.827 -0.437 l 4.553 -6.671 c 0.213 -0.312 0.231 -0.716 0.05 -1.046 c -0.183 -0.33 -0.535 -0.534 -0.912 -0.517 l -15.739 0.574 l 0.673 -16.773 c 0.017 -0.408 -0.217 -0.785 -0.59 -0.952 c -0.371 -0.168 -0.81 -0.092 -1.104 0.192 L 50.79 21.444 L 38.801 4.991 c -0.231 -0.319 -0.628 -0.474 -1.014 -0.39 c -0.385 0.081 -0.687 0.381 -0.771 0.766 l -3.724 17.095 L 12.94 10.016 c -0.362 -0.222 -0.827 -0.19 -1.156 0.08 c -0.329 0.27 -0.451 0.719 -0.304 1.118 L 17.024 26.292 z" style="stroke: none; stroke-width: 1; stroke-dasharray: none; stroke-linecap: butt; stroke-linejoin: miter; stroke-miterlimit: 10; fill: rgb(0,0,0); fill-rule: nonzero; opacity: 1;" transform=" matrix(1 0 0 1 0 0) " stroke-linecap="round"/>
	<path d="M 89.839 36.747 c -0.002 -0.265 -0.109 -0.519 -0.298 -0.705 c -0.189 -0.187 -0.458 -0.26 -0.71 -0.288 L 75.949 35.85 l -4.951 -4.163 c -2.105 -1.77 -4.773 -2.742 -7.521 -2.742 c -0.029 0 -0.059 0 -0.087 0 l -8.011 0.05 c -1.201 0.009 -2.328 0.485 -3.172 1.341 c -0.844 0.856 -1.303 1.99 -1.294 3.191 c 0.007 0.906 0.279 1.77 0.78 2.501 c -2.029 0.107 -3.919 0.955 -5.355 2.413 c -0.536 0.544 -0.98 1.152 -1.338 1.804 c -0.358 -0.651 -0.803 -1.26 -1.338 -1.804 c -1.436 -1.458 -3.325 -2.306 -5.355 -2.413 c 0.501 -0.731 0.774 -1.595 0.781 -2.502 c 0.018 -2.48 -1.985 -4.513 -4.467 -4.532 l -8.008 -0.05 c -2.798 0 -5.482 0.953 -7.61 2.742 l -4.951 4.163 L 1.168 35.754 c -0.256 -0.002 -0.52 0.102 -0.709 0.288 s -0.296 0.44 -0.298 0.705 L 0 58.436 c -0.002 0.266 0.102 0.521 0.288 0.71 c 0.186 0.188 0.44 0.296 0.705 0.298 l 12.734 0.095 c 0.927 2.245 3.134 3.769 5.607 3.787 l 18.394 0.127 c 0.021 0 0.041 0 0.062 0 c 2.148 0 4.171 -0.829 5.704 -2.338 c 0.618 -0.609 1.121 -1.303 1.51 -2.051 c 1.357 2.606 4.079 4.39 7.208 4.389 c 0.021 0 0.041 0 0.062 0 l 18.395 -0.127 c 2.473 -0.019 4.679 -1.542 5.606 -3.787 l 12.734 -0.095 c 0.265 -0.002 0.519 -0.109 0.704 -0.298 c 0.187 -0.189 0.29 -0.444 0.288 -0.71 L 89.839 36.747 z M 42.089 59.689 c -1.166 1.148 -2.733 1.749 -4.348 1.763 l -18.394 -0.127 c -1.839 -0.014 -3.459 -1.266 -3.94 -3.043 c -0.117 -0.434 -0.509 -0.736 -0.958 -0.739 L 2.007 57.451 l 0.146 -19.69 l 11.25 0.084 L 13.282 52.26 c -0.004 0.553 0.439 1.004 0.992 1.009 c 0.003 0 0.005 0 0.008 0 c 0.548 0 0.995 -0.442 1 -0.991 l 0.126 -14.956 l 4.881 -4.104 c 1.764 -1.483 3.986 -2.266 6.309 -2.273 l 8.008 0.05 c 1.378 0.01 2.491 1.14 2.481 2.517 c -0.005 0.668 -0.27 1.294 -0.745 1.762 c -0.476 0.468 -1.061 0.726 -1.774 0.719 l -8.944 -0.057 c -0.002 0 -0.005 0 -0.007 0 c -0.549 0 -0.996 0.443 -1 0.993 c -0.003 0.552 0.441 1.003 0.993 1.007 l 0.651 0.004 c 0.009 0 0.018 0 0.027 0 l 11.627 0.077 c 1.637 0.012 3.171 0.661 4.32 1.828 c 1.149 1.166 1.775 2.71 1.763 4.347 l -0.083 11.175 C 43.904 57.006 43.255 58.54 42.089 59.689 z M 75.55 57.543 c -0.448 0.003 -0.84 0.306 -0.957 0.739 c -0.481 1.777 -2.102 3.029 -3.94 3.043 l -18.395 0.127 c -0.015 0 -0.03 0 -0.046 0 c -3.358 0 -6.104 -2.72 -6.129 -6.084 L 46 44.193 c -0.012 -1.637 0.614 -3.181 1.763 -4.347 c 1.149 -1.167 2.684 -1.815 4.32 -1.828 l 10.584 -0.071 l 1.044 -0.006 c 0.01 0 0.019 0 0.028 0 l 0.65 -0.004 c 0.552 -0.004 0.997 -0.455 0.993 -1.007 c -0.004 -0.55 -0.45 -0.993 -1 -0.993 c -0.002 0 -0.005 0 -0.007 0 l -8.945 0.057 c -0.006 0 -0.013 0 -0.02 0 c -0.66 0 -1.282 -0.255 -1.753 -0.719 c -0.476 -0.468 -0.74 -1.094 -0.745 -1.762 c -0.005 -0.667 0.25 -1.296 0.719 -1.772 s 1.095 -0.74 1.761 -0.745 l 8.011 -0.05 c 0.023 0 0.048 0 0.072 0 c 2.278 0 4.49 0.806 6.235 2.273 l 4.881 4.104 l 0.127 14.956 c 0.005 0.549 0.451 0.991 1 0.991 c 0.003 0 0.006 0 0.009 0 c 0.552 -0.005 0.996 -0.456 0.991 -1.009 l -0.122 -14.415 l 11.25 -0.084 l 0.146 19.69 L 75.55 57.543 z" style="stroke: none; stroke-width: 1; stroke-dasharray: none; stroke-linecap: butt; stroke-linejoin: miter; stroke-miterlimit: 10; fill: rgb(0,0,0); fill-rule: nonzero; opacity: 1;" transform=" matrix(1 0 0 1 0 0) " stroke-linecap="round"/>
</g>
</svg>