<svg xmlns="http://www.w3.org/2000/svg" xmlns:xlink="http://www.w3.org/1999/xlink" version="1.1" width="256" height="256" viewBox="0 0 256 256" xml:space="preserve">
<g style="stroke: none; stroke-width: 0; stroke-dasharray: none; stroke-linecap: butt; stroke-linejoin: miter; stroke-miterlimit: 10; fill: none; fill-rule: nonzero; opacity: 1;" transform="translate(1.4065934065934016 1.4065934065934016) scale(2.81 2.81)">
	<path d="M 85.74 90 H 42.727 c -2.353 0 -4.26 -1.907 -4.26 -4.26 V 42.727 c 0 -2.353 1.907 -4.26 4.26 -4.26 H 85.74 c 2.353 0 4.26 1.907 4.26 4.26 V 85.74 C 90 88.093 88.093 90 85.74 90 z" style="stroke: none; stroke-width: 1; stroke-dasharray: none; stroke-linecap: butt; stroke-linejoin: miter; stroke-miterlimit: 10; fill: rgb(0,182,255); fill-rule: nonzero; opacity: 1;" transform=" matrix(1 0 0 1 0 0) " stroke-linecap="round"/>
	<path d="M 47.273 51.533 H 4.26 c -2.353 0 -4.26 -1.907 -4.26 -4.26 V 4.26 C 0 1.907 1.907 0 4.26 0 h 43.013 c 2.353 0 4.26 1.907 4.26 4.26 v 43.013 C 51.533 49.625 49.625 51.533 47.273 51.533 z" style="stroke: none; stroke-width: 1; stroke-dasharray: none; stroke-linecap: butt; stroke-linejoin: miter; stroke-miterlimit: 10; fill: rgb(255,203,0); fill-rule: nonzero; opacity: 1;" transform=" matrix(1 0 0 1 0 0) " stroke-linecap="round"/>
	<path d="M 76.382 79.301 L 66.124 49.597 c -0.278 -0.806 -1.038 -1.347 -1.891 -1.347 s -1.612 0.541 -1.891 1.347 L 52.085 79.301 c -0.36 1.045 0.193 2.184 1.237 2.544 c 1.045 0.359 2.184 -0.193 2.544 -1.238 l 3.461 -10.022 h 9.812 l 3.461 10.022 c 0.286 0.828 1.062 1.349 1.891 1.349 c 0.217 0 0.437 -0.036 0.653 -0.11 C 76.188 81.484 76.742 80.346 76.382 79.301 z M 60.709 66.584 l 3.525 -10.207 l 3.525 10.207 H 60.709 z" style="stroke: none; stroke-width: 1; stroke-dasharray: none; stroke-linecap: butt; stroke-linejoin: miter; stroke-miterlimit: 10; fill: rgb(255,255,255); fill-rule: nonzero; opacity: 1;" transform=" matrix(1 0 0 1 0 0) " stroke-linecap="round"/>
	<path d="M 42.674 12.323 H 26.779 V 9.302 c 0 -1.104 -0.896 -2 -2 -2 s -2 0.896 -2 2 v 3.021 h -12.64 c -1.104 0 -2 0.896 -2 2 s 0.896 2 2 2 h 20.747 c -1.68 3.632 -4.103 7.246 -6.853 10.605 c -1.872 -2.482 -3.478 -5.018 -4.512 -7.343 c -0.45 -1.01 -1.632 -1.464 -2.64 -1.014 c -1.009 0.449 -1.463 1.631 -1.014 2.64 c 1.271 2.856 3.238 5.9 5.491 8.805 c -2.849 3.114 -5.865 5.911 -8.637 8.156 c -0.858 0.695 -0.991 1.955 -0.295 2.813 c 0.395 0.488 0.973 0.741 1.555 0.741 c 0.442 0 0.887 -0.146 1.258 -0.446 c 2.781 -2.252 5.799 -5.041 8.683 -8.157 c 2.823 3.228 5.842 6.102 8.418 8.081 c 0.363 0.279 0.792 0.414 1.217 0.414 c 0.6 0 1.193 -0.269 1.587 -0.782 c 0.673 -0.875 0.508 -2.131 -0.368 -2.804 c -2.524 -1.939 -5.479 -4.794 -8.187 -7.943 c 3.585 -4.288 6.736 -9.021 8.656 -13.768 h 7.43 c 1.104 0 2 -0.896 2 -2 S 43.778 12.323 42.674 12.323 z" style="stroke: none; stroke-width: 1; stroke-dasharray: none; stroke-linecap: butt; stroke-linejoin: miter; stroke-miterlimit: 10; fill: rgb(255,255,255); fill-rule: nonzero; opacity: 1;" transform=" matrix(1 0 0 1 0 0) " stroke-linecap="round"/>
	<path d="M 80.262 7.738 h -13.52 l 2.065 -2.065 c 0.781 -0.781 0.781 -2.047 0 -2.828 c -0.781 -0.781 -2.047 -0.781 -2.828 0 l -5.477 5.478 c -0.093 0.093 -0.177 0.196 -0.251 0.306 c -0.033 0.049 -0.055 0.102 -0.083 0.153 c -0.035 0.063 -0.073 0.124 -0.101 0.192 c -0.027 0.066 -0.043 0.134 -0.063 0.202 c -0.017 0.057 -0.039 0.112 -0.051 0.171 c -0.051 0.259 -0.051 0.525 0 0.783 c 0.012 0.059 0.034 0.114 0.051 0.171 c 0.02 0.068 0.036 0.136 0.063 0.202 c 0.028 0.067 0.066 0.128 0.101 0.192 c 0.028 0.051 0.05 0.104 0.083 0.153 c 0.074 0.11 0.157 0.213 0.251 0.306 l 5.477 5.477 c 0.391 0.391 0.902 0.586 1.414 0.586 s 1.023 -0.195 1.414 -0.586 c 0.781 -0.781 0.781 -2.047 0 -2.828 l -2.064 -2.064 h 11.52 v 16.478 c 0 1.104 0.896 2 2 2 s 2 -0.896 2 -2 V 9.738 C 82.262 8.634 81.366 7.738 80.262 7.738 z" style="stroke: none; stroke-width: 1; stroke-dasharray: none; stroke-linecap: butt; stroke-linejoin: miter; stroke-miterlimit: 10; fill: rgb(0,182,255); fill-rule: nonzero; opacity: 1;" transform=" matrix(1 0 0 1 0 0) " stroke-linecap="round"/>
	<path d="M 29.749 81.37 c 0.032 -0.047 0.053 -0.099 0.081 -0.148 c 0.036 -0.065 0.075 -0.127 0.103 -0.196 c 0.027 -0.065 0.042 -0.133 0.062 -0.2 c 0.017 -0.058 0.039 -0.113 0.051 -0.173 c 0.051 -0.258 0.051 -0.525 0 -0.783 c -0.012 -0.06 -0.034 -0.115 -0.051 -0.173 c -0.02 -0.067 -0.035 -0.135 -0.062 -0.2 c -0.028 -0.069 -0.067 -0.131 -0.103 -0.196 c -0.027 -0.049 -0.049 -0.101 -0.081 -0.148 c -0.074 -0.11 -0.157 -0.213 -0.251 -0.307 l -5.477 -5.477 c -0.78 -0.781 -2.048 -0.781 -2.828 0 c -0.781 0.781 -0.781 2.047 0 2.828 l 2.064 2.064 H 11.738 V 61.784 c 0 -1.104 -0.896 -2 -2 -2 s -2 0.896 -2 2 v 18.478 c 0 1.104 0.896 2 2 2 h 13.519 l -2.064 2.064 c -0.781 0.781 -0.781 2.047 0 2.828 c 0.39 0.391 0.902 0.586 1.414 0.586 s 1.024 -0.195 1.414 -0.586 l 5.477 -5.477 C 29.592 81.584 29.676 81.481 29.749 81.37 z" style="stroke: none; stroke-width: 1; stroke-dasharray: none; stroke-linecap: butt; stroke-linejoin: miter; stroke-miterlimit: 10; fill: rgb(255,203,0); fill-rule: nonzero; opacity: 1;" transform=" matrix(1 0 0 1 0 0) " stroke-linecap="round"/>
</g>
</svg>