<svg xmlns="http://www.w3.org/2000/svg" xmlns:xlink="http://www.w3.org/1999/xlink" version="1.1" width="256" height="256" viewBox="0 0 256 256" xml:space="preserve">
<g style="stroke: none; stroke-width: 0; stroke-dasharray: none; stroke-linecap: butt; stroke-linejoin: miter; stroke-miterlimit: 10; fill: none; fill-rule: nonzero; opacity: 1;" transform="translate(1.4065934065934016 1.4065934065934016) scale(2.81 2.81)">
	<path d="M 48.179 52.009 h -4.884 c -0.829 0 -1.5 -0.672 -1.5 -1.5 V 39.492 c 0 -0.829 0.671 -1.5 1.5 -1.5 s 1.5 0.671 1.5 1.5 v 9.517 h 3.384 c 0.828 0 1.5 0.672 1.5 1.5 S 49.007 52.009 48.179 52.009 z" style="stroke: none; stroke-width: 1; stroke-dasharray: none; stroke-linecap: butt; stroke-linejoin: miter; stroke-miterlimit: 10; fill: rgb(239,0,0); fill-rule: nonzero; opacity: 1;" transform=" matrix(1 0 0 1 0 0) " stroke-linecap="round"/>
	<path d="M 53.298 52.009 c -0.828 0 -1.5 -0.672 -1.5 -1.5 V 39.492 c 0 -0.829 0.672 -1.5 1.5 -1.5 s 1.5 0.671 1.5 1.5 v 11.017 C 54.798 51.337 54.126 52.009 53.298 52.009 z" style="stroke: none; stroke-width: 1; stroke-dasharray: none; stroke-linecap: butt; stroke-linejoin: miter; stroke-miterlimit: 10; fill: rgb(239,0,0); fill-rule: nonzero; opacity: 1;" transform=" matrix(1 0 0 1 0 0) " stroke-linecap="round"/>
	<path d="M 75.69 52.009 h -4.884 c -0.828 0 -1.5 -0.672 -1.5 -1.5 V 39.492 c 0 -0.829 0.672 -1.5 1.5 -1.5 h 4.884 c 0.828 0 1.5 0.671 1.5 1.5 s -0.672 1.5 -1.5 1.5 h -3.384 v 8.017 h 3.384 c 0.828 0 1.5 0.672 1.5 1.5 S 76.519 52.009 75.69 52.009 z" style="stroke: none; stroke-width: 1; stroke-dasharray: none; stroke-linecap: butt; stroke-linejoin: miter; stroke-miterlimit: 10; fill: rgb(239,0,0); fill-rule: nonzero; opacity: 1;" transform=" matrix(1 0 0 1 0 0) " stroke-linecap="round"/>
	<path d="M 74.001 46.5 h -3.194 c -0.828 0 -1.5 -0.671 -1.5 -1.5 s 0.672 -1.5 1.5 -1.5 h 3.194 c 0.828 0 1.5 0.671 1.5 1.5 S 74.829 46.5 74.001 46.5 z" style="stroke: none; stroke-width: 1; stroke-dasharray: none; stroke-linecap: butt; stroke-linejoin: miter; stroke-miterlimit: 10; fill: rgb(239,0,0); fill-rule: nonzero; opacity: 1;" transform=" matrix(1 0 0 1 0 0) " stroke-linecap="round"/>
	<path d="M 62.071 52.009 c -0.635 0 -1.2 -0.399 -1.413 -0.997 l -3.922 -11.017 c -0.278 -0.78 0.13 -1.638 0.91 -1.916 c 0.779 -0.277 1.638 0.13 1.916 0.91 l 2.509 7.046 l 2.508 -7.046 c 0.278 -0.78 1.139 -1.187 1.916 -0.91 c 0.78 0.278 1.188 1.136 0.91 1.916 l -3.921 11.017 C 63.271 51.609 62.706 52.009 62.071 52.009 z" style="stroke: none; stroke-width: 1; stroke-dasharray: none; stroke-linecap: butt; stroke-linejoin: miter; stroke-miterlimit: 10; fill: rgb(239,0,0); fill-rule: nonzero; opacity: 1;" transform=" matrix(1 0 0 1 0 0) " stroke-linecap="round"/>
	<path d="M 13.948 52.665 c -0.388 0 -0.776 -0.095 -1.131 -0.284 c -0.78 -0.418 -1.264 -1.227 -1.264 -2.111 V 39.73 c 0 -0.885 0.484 -1.694 1.265 -2.111 c 0.779 -0.419 1.721 -0.372 2.458 0.119 l 7.917 5.269 c 0.668 0.445 1.068 1.19 1.068 1.993 s -0.399 1.548 -1.068 1.993 l -7.918 5.271 C 14.873 52.53 14.411 52.665 13.948 52.665 z M 14.552 40.861 v 8.279 l 6.22 -4.14 L 14.552 40.861 z" style="stroke: none; stroke-width: 1; stroke-dasharray: none; stroke-linecap: butt; stroke-linejoin: miter; stroke-miterlimit: 10; fill: rgb(239,0,0); fill-rule: nonzero; opacity: 1;" transform=" matrix(1 0 0 1 0 0) " stroke-linecap="round"/>
	<path d="M 16.476 61.476 C 7.391 61.476 0 54.085 0 45 s 7.391 -16.476 16.476 -16.476 c 3.296 0 6.478 0.971 9.201 2.807 c 0.687 0.463 0.869 1.396 0.405 2.082 C 25.62 34.1 24.687 34.281 24 33.818 c -2.226 -1.501 -4.828 -2.294 -7.524 -2.294 C 9.045 31.524 3 37.569 3 45 s 6.045 13.476 13.476 13.476 S 29.952 52.431 29.952 45 c 0 -1.481 -0.238 -2.937 -0.709 -4.326 c -0.266 -0.785 0.155 -1.636 0.94 -1.902 c 0.789 -0.264 1.637 0.156 1.902 0.94 c 0.575 1.7 0.867 3.479 0.867 5.288 C 32.952 54.085 25.561 61.476 16.476 61.476 z" style="stroke: none; stroke-width: 1; stroke-dasharray: none; stroke-linecap: butt; stroke-linejoin: miter; stroke-miterlimit: 10; fill: rgb(239,0,0); fill-rule: nonzero; opacity: 1;" transform=" matrix(1 0 0 1 0 0) " stroke-linecap="round"/>
	<path d="M 76.075 58.925 H 34.188 c -0.829 0 -1.5 -0.672 -1.5 -1.5 s 0.671 -1.5 1.5 -1.5 h 41.887 C 82.1 55.925 87 51.024 87 45 s -4.9 -10.925 -10.925 -10.925 H 24.839 c -0.829 0 -1.5 -0.671 -1.5 -1.5 s 0.671 -1.5 1.5 -1.5 h 51.236 C 83.753 31.075 90 37.322 90 45 C 90 52.678 83.753 58.925 76.075 58.925 z" style="stroke: none; stroke-width: 1; stroke-dasharray: none; stroke-linecap: butt; stroke-linejoin: miter; stroke-miterlimit: 10; fill: rgb(239,0,0); fill-rule: nonzero; opacity: 1;" transform=" matrix(1 0 0 1 0 0) " stroke-linecap="round"/>
</g>
</svg>