<svg xmlns="http://www.w3.org/2000/svg" xmlns:xlink="http://www.w3.org/1999/xlink" version="1.1" width="256" height="256" viewBox="0 0 256 256" xml:space="preserve">
<g style="stroke: none; stroke-width: 0; stroke-dasharray: none; stroke-linecap: butt; stroke-linejoin: miter; stroke-miterlimit: 10; fill: none; fill-rule: nonzero; opacity: 1;" transform="translate(1.4065934065934016 1.4065934065934016) scale(2.81 2.81)">
	<path d="M 43.458 65.465 l -3.21 -18.842 l -1.181 -6.93 c -0.018 -0.106 -0.049 -0.205 -0.088 -0.3 c -0.011 -0.027 -0.026 -0.051 -0.039 -0.077 c -0.032 -0.067 -0.067 -0.132 -0.109 -0.192 c -0.02 -0.029 -0.042 -0.055 -0.064 -0.082 c -0.043 -0.053 -0.087 -0.102 -0.137 -0.148 c -0.027 -0.025 -0.054 -0.049 -0.083 -0.072 c -0.054 -0.043 -0.112 -0.081 -0.172 -0.116 c -0.02 -0.012 -0.037 -0.028 -0.058 -0.039 c -0.01 -0.005 -0.02 -0.007 -0.03 -0.011 c -0.076 -0.037 -0.155 -0.066 -0.238 -0.09 c -0.017 -0.005 -0.032 -0.013 -0.049 -0.017 c -0.098 -0.024 -0.2 -0.038 -0.304 -0.04 c -0.03 -0.001 -0.059 0.005 -0.089 0.006 c -0.061 0.002 -0.122 0.002 -0.184 0.013 c -0.011 0.002 -0.021 0.007 -0.033 0.009 c -0.038 0.007 -0.074 0.02 -0.112 0.031 c -0.065 0.018 -0.129 0.039 -0.19 0.065 c -0.014 0.006 -0.029 0.008 -0.042 0.015 L 13.972 49.71 c -0.013 0.006 -0.022 0.018 -0.035 0.025 c -0.125 0.065 -0.241 0.142 -0.34 0.237 c -0.006 0.006 -0.011 0.014 -0.017 0.02 c -0.092 0.092 -0.167 0.198 -0.23 0.311 c -0.012 0.021 -0.024 0.04 -0.035 0.061 c -0.058 0.117 -0.099 0.242 -0.123 0.373 c -0.005 0.026 -0.007 0.051 -0.01 0.077 c -0.017 0.136 -0.022 0.276 0.002 0.419 l 1.181 6.93 l 2.438 14.314 c -1.494 -0.564 -3.283 -0.65 -5.064 -0.114 c -3.753 1.132 -6.043 4.585 -5.105 7.698 c 0.852 2.826 4.078 4.415 7.475 3.836 c 0.344 -0.059 0.689 -0.139 1.034 -0.243 c 3.522 -1.062 5.756 -4.17 5.241 -7.121 l -3.03 -17.79 l 20.404 -9.781 l 2.121 12.452 c -1.495 -0.566 -3.285 -0.652 -5.063 -0.113 c -1.759 0.53 -3.26 1.581 -4.226 2.96 c -1.041 1.483 -1.353 3.166 -0.879 4.737 c 0.474 1.571 1.663 2.801 3.351 3.463 c 1.258 0.493 2.685 0.621 4.108 0.378 c 0.351 -0.06 0.702 -0.142 1.049 -0.247 c 1.759 -0.53 3.26 -1.581 4.226 -2.96 C 43.359 68.327 43.71 66.868 43.458 65.465 z" style="stroke: none; stroke-width: 1; stroke-dasharray: none; stroke-linecap: butt; stroke-linejoin: miter; stroke-miterlimit: 10; fill: rgb(237,95,217); fill-rule: nonzero; opacity: 1;" transform=" matrix(1 0 0 1 0 0) " stroke-linecap="round"/>
	<path d="M 63.611 49.077 c -2.324 -0.584 -4.003 -1.007 -4.972 -3.724 c -0.287 -0.806 -1.174 -1.226 -1.979 -0.939 c -0.806 0.287 -1.226 1.174 -0.939 1.979 l 3.923 11.003 l 4.216 11.824 c -1.833 -0.364 -3.845 -0.062 -5.661 0.856 c -3.903 1.966 -5.753 6.195 -4.125 9.428 c 0.82 1.63 2.361 2.748 4.339 3.149 c 1.476 0.299 3.069 0.164 4.586 -0.377 c 0.374 -0.133 0.744 -0.291 1.105 -0.474 c 3.663 -1.845 5.518 -5.682 4.387 -8.819 l -5.427 -15.219 c 1.261 -0.268 3.347 -0.065 6.411 2.551 c 0.426 0.364 1.01 0.465 1.526 0.281 c 0.076 -0.027 0.15 -0.06 0.223 -0.1 c 0.564 -0.308 0.879 -0.933 0.792 -1.569 C 70.924 50.916 66.869 49.897 63.611 49.077 z" style="stroke: none; stroke-width: 1; stroke-dasharray: none; stroke-linecap: butt; stroke-linejoin: miter; stroke-miterlimit: 10; fill: rgb(162,90,224); fill-rule: nonzero; opacity: 1;" transform=" matrix(1 0 0 1 0 0) " stroke-linecap="round"/>
	<path d="M 78.22 37.363 l 8.503 -16.435 l 3.127 -6.045 c 0.048 -0.092 0.082 -0.187 0.107 -0.283 c 0.007 -0.027 0.009 -0.055 0.015 -0.082 c 0.014 -0.071 0.025 -0.141 0.028 -0.212 c 0.001 -0.034 -0.001 -0.067 -0.002 -0.101 c -0.002 -0.065 -0.008 -0.13 -0.019 -0.194 c -0.006 -0.035 -0.013 -0.069 -0.022 -0.104 c -0.017 -0.065 -0.039 -0.128 -0.065 -0.19 c -0.009 -0.021 -0.012 -0.043 -0.022 -0.064 c -0.004 -0.009 -0.012 -0.017 -0.016 -0.026 c -0.037 -0.073 -0.081 -0.142 -0.131 -0.208 c -0.01 -0.013 -0.018 -0.029 -0.028 -0.042 c -0.062 -0.076 -0.133 -0.146 -0.212 -0.208 c -0.023 -0.018 -0.049 -0.031 -0.072 -0.047 c -0.049 -0.034 -0.095 -0.07 -0.149 -0.097 c -0.01 -0.005 -0.021 -0.007 -0.031 -0.012 c -0.034 -0.016 -0.069 -0.028 -0.104 -0.041 c -0.061 -0.024 -0.122 -0.045 -0.185 -0.06 c -0.014 -0.003 -0.027 -0.011 -0.041 -0.013 L 64.614 7.997 c -0.014 -0.003 -0.028 0.001 -0.042 -0.001 c -0.134 -0.023 -0.269 -0.031 -0.401 -0.014 c -0.009 0.001 -0.017 0.004 -0.025 0.005 c -0.125 0.018 -0.244 0.056 -0.359 0.106 c -0.021 0.009 -0.042 0.016 -0.063 0.027 c -0.113 0.057 -0.218 0.13 -0.313 0.217 c -0.019 0.017 -0.035 0.036 -0.053 0.054 c -0.093 0.095 -0.178 0.2 -0.242 0.325 l -3.127 6.045 L 53.53 27.245 c -0.826 -1.307 -2.159 -2.417 -3.847 -3.04 c -3.561 -1.313 -7.343 0.021 -8.433 2.974 c -0.989 2.681 0.579 5.79 3.541 7.322 c 0.3 0.155 0.614 0.294 0.941 0.415 c 3.342 1.232 6.879 0.132 8.202 -2.449 l 8.028 -15.517 l 21.472 4.333 l -5.619 10.861 c -0.826 -1.309 -2.159 -2.419 -3.848 -3.039 c -1.668 -0.616 -3.441 -0.678 -4.992 -0.176 c -1.669 0.54 -2.891 1.659 -3.441 3.148 c -0.55 1.49 -0.347 3.134 0.571 4.63 c 0.685 1.114 1.713 2.045 2.955 2.687 c 0.306 0.158 0.625 0.299 0.955 0.421 c 1.668 0.616 3.441 0.678 4.992 0.176 C 76.476 39.517 77.598 38.593 78.22 37.363 z" style="stroke: none; stroke-width: 1; stroke-dasharray: none; stroke-linecap: butt; stroke-linejoin: miter; stroke-miterlimit: 10; fill: rgb(237,95,217); fill-rule: nonzero; opacity: 1;" transform=" matrix(1 0 0 1 0 0) " stroke-linecap="round"/>
	<path d="M 26.638 14.062 c -1.444 -1.913 -2.486 -3.295 -1.536 -6.019 c 0.282 -0.808 -0.145 -1.691 -0.953 -1.973 c -0.808 -0.282 -1.691 0.145 -1.973 0.953 l -3.846 11.03 l -4.133 11.853 c -1.199 -1.433 -2.956 -2.46 -4.946 -2.885 c -4.273 -0.917 -8.366 1.216 -9.126 4.755 c -0.383 1.784 0.115 3.621 1.404 5.174 c 0.962 1.159 2.287 2.053 3.808 2.583 c 0.375 0.131 0.762 0.24 1.158 0.324 c 4.01 0.861 7.861 -0.964 8.948 -4.117 l 5.32 -15.257 c 1.15 0.582 2.648 2.049 3.393 6.008 c 0.103 0.551 0.495 0.996 1.012 1.176 c 0.076 0.027 0.155 0.048 0.236 0.062 c 0.632 0.114 1.27 -0.175 1.601 -0.725 C 31.18 20.082 28.661 16.744 26.638 14.062 z" style="stroke: none; stroke-width: 1; stroke-dasharray: none; stroke-linecap: butt; stroke-linejoin: miter; stroke-miterlimit: 10; fill: rgb(162,90,224); fill-rule: nonzero; opacity: 1;" transform=" matrix(1 0 0 1 0 0) " stroke-linecap="round"/>
</g>
</svg>