<svg xmlns="http://www.w3.org/2000/svg" xmlns:xlink="http://www.w3.org/1999/xlink" version="1.1" width="256" height="256" viewBox="0 0 256 256" xml:space="preserve">
<g style="stroke: none; stroke-width: 0; stroke-dasharray: none; stroke-linecap: butt; stroke-linejoin: miter; stroke-miterlimit: 10; fill: none; fill-rule: nonzero; opacity: 1;" transform="translate(1.4065934065934016 1.4065934065934016) scale(2.81 2.81)">
	<path d="M 49.55 0.23 C 48.05 0.08 46.54 0 45 0 C 20.15 0 0 20.15 0 45 s 20.15 45 45 45 c 1.54 0 3.05 -0.08 4.55 -0.23 V 0.23 z" style="stroke: none; stroke-width: 1; stroke-dasharray: none; stroke-linecap: butt; stroke-linejoin: miter; stroke-miterlimit: 10; fill: rgb(223,26,35); fill-rule: nonzero; opacity: 1;" transform=" matrix(1 0 0 1 0 0) " stroke-linecap="round"/>
	<path d="M 2.57 30 C 0.91 34.69 0 39.74 0 45 s 0.91 10.31 2.57 15 h 84.86 C 89.09 55.31 90 50.26 90 45 s -0.91 -10.31 -2.57 -15 H 2.57 z" style="stroke: none; stroke-width: 1; stroke-dasharray: none; stroke-linecap: butt; stroke-linejoin: miter; stroke-miterlimit: 10; fill: rgb(223,26,35); fill-rule: nonzero; opacity: 1;" transform=" matrix(1 0 0 1 0 0) " stroke-linecap="round"/>
	<path d="M 49.55 60 v 29.76 C 67.14 87.99 81.73 76.1 87.43 60 H 49.55 z" style="stroke: none; stroke-width: 1; stroke-dasharray: none; stroke-linecap: butt; stroke-linejoin: miter; stroke-miterlimit: 10; fill: rgb(0,126,60); fill-rule: nonzero; opacity: 1;" transform=" matrix(1 0 0 1 0 0) " stroke-linecap="round"/>
	<path d="M 49.55 30 h 37.88 C 81.74 13.9 67.14 2 49.55 0.24 V 30 z" style="stroke: none; stroke-width: 1; stroke-dasharray: none; stroke-linecap: butt; stroke-linejoin: miter; stroke-miterlimit: 10; fill: rgb(249,249,249); fill-rule: nonzero; opacity: 1;" transform=" matrix(1 0 0 1 0 0) " stroke-linecap="round"/>
	<path d="M 40.573 27.97 c -1.247 -1.04 -6.21 -5.335 -8.566 -7.899 c 0.212 -0.736 0.336 -1.528 0.285 -2.375 h 0.078 v 0.037 h 4.101 v 0.792 h 5.036 V 16.08 h -5.036 v 0.792 h -4.097 v 0.037 h -0.143 V 15.67 H 28.49 v 1.238 h -1.51 v 0.074 h -2.951 v -1.013 h -4.746 v 2.661 h 4.746 v -1.003 h 2.951 V 17.7 h 1.27 l -0.166 1.722 c 0 0 -4.783 0.212 -6.067 0.419 c -3.167 0.502 -2.159 1.436 0.433 2.302 c 1.192 0.396 2.38 0.552 3.503 0.612 c -1.827 1.952 -5.556 4.847 -6.454 5.358 c -1.008 0.575 -1.008 1.293 0.934 0.865 c 1.883 -0.419 6.237 -4.262 7.752 -6.205 l 1.312 -0.055 c 0.69 -0.028 1.238 -0.46 1.699 -1.031 c 1.966 2.325 5.818 5.772 7.365 6.711 c 1.653 1.008 2.426 0.985 3.01 0.888 C 42.157 29.189 41.867 29.047 40.573 27.97 L 40.573 27.97 z" style="stroke: none; stroke-width: 1; stroke-dasharray: none; stroke-linecap: butt; stroke-linejoin: miter; stroke-miterlimit: 10; fill: rgb(238,238,238); fill-rule: nonzero; opacity: 1;" transform=" matrix(1 0 0 1 0 0) " stroke-linecap="round"/>
	<polygon points="31.24,9.18 33.49,7.58 30.45,5.62 27.4,7.58 29.59,9.12 28.4,15.12 32.5,15.12 32.41,14.79 " style="stroke: none; stroke-width: 1; stroke-dasharray: none; stroke-linecap: butt; stroke-linejoin: miter; stroke-miterlimit: 10; fill: rgb(238,238,238); fill-rule: nonzero; opacity: 1;" transform="  matrix(1 0 0 1 0 0) "/>
	<path d="M 22.216 7.136 c -0.414 0.23 1.238 3.811 2.679 6.421 c 1.436 2.61 2.117 3.254 2.532 3.024 c 0.419 -0.23 -0.118 -1.104 -1.559 -3.714 C 24.427 10.262 22.635 6.901 22.216 7.136 z" style="stroke: none; stroke-width: 1; stroke-dasharray: none; stroke-linecap: butt; stroke-linejoin: miter; stroke-miterlimit: 10; fill: rgb(238,238,238); fill-rule: nonzero; opacity: 1;" transform=" matrix(1 0 0 1 0 0) " stroke-linecap="round"/>
	<path d="M 38.469 6.809 c -0.419 -0.23 -1.266 1.833 -2.702 4.438 c -1.441 2.61 -2.928 4.777 -2.509 5.007 c 0.414 0.23 1.919 -1.699 3.36 -4.304 C 38.055 9.341 38.888 7.039 38.469 6.809 z" style="stroke: none; stroke-width: 1; stroke-dasharray: none; stroke-linecap: butt; stroke-linejoin: miter; stroke-miterlimit: 10; fill: rgb(238,238,238); fill-rule: nonzero; opacity: 1;" transform=" matrix(1 0 0 1 0 0) " stroke-linecap="round"/>
</g>
</svg>